<svg width="1050" height="220" viewBox="0 0 1050 220" fill="none" xmlns="http://www.w3.org/2000/svg">
<g clip-path="url(#clip0_3_50)">
<path d="M410.803 31.48H388.183V97H375.703V31.48H353.083V20.56H410.803V31.48ZM478.644 64.24H467.724V51.76H445.884V97H434.964V42.4H445.884V50.2L453.684 42.4H467.724C470.74 42.4 473.288 43.492 475.368 45.676C477.552 47.756 478.644 50.304 478.644 53.32V64.24ZM562.83 97H519.15C516.134 97 513.534 95.96 511.35 93.88C509.27 91.696 508.23 89.096 508.23 86.08V53.32C508.23 50.304 509.27 47.756 511.35 45.676C513.534 43.492 516.134 42.4 519.15 42.4H551.91C554.926 42.4 557.474 43.492 559.554 45.676C561.738 47.756 562.83 50.304 562.83 53.32V64.24L551.91 75.16H520.71L530.07 65.8H551.91V51.76H519.15V87.64H562.83V97ZM651.743 42.4L626.939 64.084V65.644H637.703C640.719 65.644 643.267 66.736 645.347 68.92C647.531 71 648.623 73.548 648.623 76.564V97H637.703V73.6H604.943V97H594.023V17.44L604.943 6.51999V72.196L638.483 42.4H651.743ZM740.7 42.4L715.896 64.084V65.644H726.66C729.676 65.644 732.224 66.736 734.304 68.92C736.488 71 737.58 73.548 737.58 76.564V97H726.66V73.6H693.9V97H682.98V17.44L693.9 6.51999V72.196L727.44 42.4H740.7ZM824.977 97H781.297C778.281 97 775.681 95.96 773.497 93.88C771.417 91.696 770.377 89.096 770.377 86.08V53.32C770.377 50.304 771.417 47.756 773.497 45.676C775.681 43.492 778.281 42.4 781.297 42.4H814.057C817.073 42.4 819.621 43.492 821.701 45.676C823.885 47.756 824.977 50.304 824.977 53.32V64.24L814.057 75.16H782.857L792.217 65.8H814.057V51.76H781.297V87.64H824.977V97ZM898.29 64.24H887.37V51.76H865.53V97H854.61V42.4H865.53V50.2L873.33 42.4H887.37C890.386 42.4 892.934 43.492 895.014 45.676C897.198 47.756 898.29 50.304 898.29 53.32V64.24ZM942.072 33.04L932.712 43.96V20.56H926.472V8.07999H931.152C934.168 8.07999 936.716 9.17199 938.796 11.356C940.98 13.436 942.072 15.984 942.072 19V33.04ZM1022.29 42.4L1012.78 51.76H986.412V64.24H1008.25C1011.27 64.24 1013.82 65.332 1015.9 67.516C1018.08 69.596 1019.17 72.144 1019.17 75.16V86.08C1019.17 89.096 1018.08 91.696 1015.9 93.88C1013.82 95.96 1011.27 97 1008.25 97H975.492V87.64H1008.25V73.6H986.412C983.396 73.6 980.796 72.56 978.612 70.48C976.532 68.296 975.492 65.696 975.492 62.68V53.32C975.492 50.304 976.532 47.756 978.612 45.676C980.796 43.492 983.396 42.4 986.412 42.4H1022.29ZM610.452 128.56L581.28 205H561L532.452 128.56H546.492L569.892 194.392H573.012L596.412 128.56H610.452ZM649.385 141.04H638.465V128.56H649.385V141.04ZM649.385 205H638.465V158.2L649.385 147.28V205ZM738.299 205H694.619C691.603 205 689.003 203.96 686.819 201.88C684.739 199.696 683.699 197.096 683.699 194.08V161.32C683.699 158.304 684.739 155.756 686.819 153.676C689.003 151.492 691.603 150.4 694.619 150.4H727.379C730.395 150.4 732.943 151.492 735.023 153.676C737.207 155.756 738.299 158.304 738.299 161.32V172.24L727.379 183.16H696.179L705.539 173.8H727.379V159.76H694.619V195.64H738.299V205ZM845.933 150.4L830.957 205H813.797L805.373 167.716H803.813L795.077 205H777.917L763.253 150.4H774.953L785.093 195.952H788.213L799.445 150.4H810.365L820.973 195.952H824.093L834.233 150.4H845.933Z" fill="white"/>
<path d="M10 25C10 16.7157 16.7157 10 25 10H295C303.284 10 310 16.7157 310 25V195C310 203.284 303.284 210 295 210H25C16.7157 210 10 203.284 10 195V25Z" fill="url(#paint0_linear_3_50)"/>
<path d="M103.499 40L10 119.88V195C10 203.284 16.7157 210 25 210H295C303.284 210 310 203.284 310 195V158.283L237.725 80.9639L202.161 136.265L103.499 40Z" fill="black"/>
<path d="M128.563 112L73.5635 70L142.063 112L93.5635 150L261.022 205.5H181.022L64.0635 150L128.563 112Z" fill="url(#paint1_linear_3_50)"/>
</g>
<defs>
<linearGradient id="paint0_linear_3_50" x1="160" y1="10" x2="160" y2="210" gradientUnits="userSpaceOnUse">
<stop stop-color="#FFFA77"/>
<stop offset="0.515625" stop-color="#F05803"/>
<stop offset="1" stop-color="#FF1203"/>
</linearGradient>
<linearGradient id="paint1_linear_3_50" x1="79" y1="70" x2="217" y2="206" gradientUnits="userSpaceOnUse">
<stop stop-color="#404040"/>
<stop offset="1" stop-color="#C5C5C5"/>
</linearGradient>
<clipPath id="clip0_3_50">
<rect width="1050" height="220" fill="white"/>
</clipPath>
</defs>
</svg>
