<svg width="720" height="250" viewBox="0 0 720 250" fill="none" xmlns="http://www.w3.org/2000/svg">
<g clip-path="url(#clip0_11_9)">
<path d="M82.8027 40.48H60.1827V106H47.7027V40.48H25.0827V29.56H82.8027V40.48ZM150.644 73.24H139.724V60.76H117.884V106H106.964V51.4H117.884V59.2L125.684 51.4H139.724C142.74 51.4 145.288 52.492 147.368 54.676C149.552 56.756 150.644 59.304 150.644 62.32V73.24ZM234.83 106H191.15C188.134 106 185.534 104.96 183.35 102.88C181.27 100.696 180.23 98.096 180.23 95.08V62.32C180.23 59.304 181.27 56.756 183.35 54.676C185.534 52.492 188.134 51.4 191.15 51.4H223.91C226.926 51.4 229.474 52.492 231.554 54.676C233.738 56.756 234.83 59.304 234.83 62.32V73.24L223.91 84.16H192.71L202.07 74.8H223.91V60.76H191.15V96.64H234.83V106ZM323.743 51.4L298.939 73.084V74.644H309.703C312.719 74.644 315.267 75.736 317.347 77.92C319.531 80 320.623 82.548 320.623 85.564V106H309.703V82.6H276.943V106H266.023V26.44L276.943 15.52V81.196L310.483 51.4H323.743ZM412.7 51.4L387.896 73.084V74.644H398.66C401.676 74.644 404.224 75.736 406.304 77.92C408.488 80 409.58 82.548 409.58 85.564V106H398.66V82.6H365.9V106H354.98V26.44L365.9 15.52V81.196L399.44 51.4H412.7ZM496.977 106H453.297C450.281 106 447.681 104.96 445.497 102.88C443.417 100.696 442.377 98.096 442.377 95.08V62.32C442.377 59.304 443.417 56.756 445.497 54.676C447.681 52.492 450.281 51.4 453.297 51.4H486.057C489.073 51.4 491.621 52.492 493.701 54.676C495.885 56.756 496.977 59.304 496.977 62.32V73.24L486.057 84.16H454.857L464.217 74.8H486.057V60.76H453.297V96.64H496.977V106ZM570.29 73.24H559.37V60.76H537.53V106H526.61V51.4H537.53V59.2L545.33 51.4H559.37C562.386 51.4 564.934 52.492 567.014 54.676C569.198 56.756 570.29 59.304 570.29 62.32V73.24ZM614.072 42.04L604.712 52.96V29.56H598.472V17.08H603.152C606.168 17.08 608.716 18.172 610.796 20.356C612.98 22.436 614.072 24.984 614.072 28V42.04ZM694.292 51.4L684.776 60.76H658.412V73.24H680.252C683.268 73.24 685.816 74.332 687.896 76.516C690.08 78.596 691.172 81.144 691.172 84.16V95.08C691.172 98.096 690.08 100.696 687.896 102.88C685.816 104.96 683.268 106 680.252 106H647.492V96.64H680.252V82.6H658.412C655.396 82.6 652.796 81.56 650.612 79.48C648.532 77.296 647.492 74.696 647.492 71.68V62.32C647.492 59.304 648.532 56.756 650.612 54.676C652.796 52.492 655.396 51.4 658.412 51.4H694.292ZM282.452 149.56L253.28 226H233L204.452 149.56H218.492L241.892 215.392H245.012L268.412 149.56H282.452ZM321.385 162.04H310.465V149.56H321.385V162.04ZM321.385 226H310.465V179.2L321.385 168.28V226ZM410.299 226H366.619C363.603 226 361.003 224.96 358.819 222.88C356.739 220.696 355.699 218.096 355.699 215.08V182.32C355.699 179.304 356.739 176.756 358.819 174.676C361.003 172.492 363.603 171.4 366.619 171.4H399.379C402.395 171.4 404.943 172.492 407.023 174.676C409.207 176.756 410.299 179.304 410.299 182.32V193.24L399.379 204.16H368.179L377.539 194.8H399.379V180.76H366.619V216.64H410.299V226ZM517.933 171.4L502.957 226H485.797L477.373 188.716H475.813L467.077 226H449.917L435.253 171.4H446.953L457.093 216.952H460.213L471.445 171.4H482.365L492.973 216.952H496.093L506.233 171.4H517.933Z" fill="white"/>
</g>
<defs>
<clipPath id="clip0_11_9">
<rect width="720" height="250" fill="white"/>
</clipPath>
</defs>
</svg>
