<svg width="300" height="300" viewBox="0 0 300 300" fill="none" xmlns="http://www.w3.org/2000/svg">
<path d="M0 22.5C0 10.0736 6.71573 0 15 0H285C293.284 0 300 10.0736 300 22.5V277.5C300 289.926 293.284 300 285 300H15C6.71573 300 0 289.926 0 277.5V22.5Z" fill="url(#paint0_linear_16_3)"/>
<path d="M93.499 45L0 164.819V277.5C0 289.926 6.71573 300 15 300H285C293.284 300 300 289.926 300 277.5V222.425L227.725 106.446L192.161 189.398L93.499 45Z" fill="black"/>
<path d="M118.563 153L63.5635 90L132.063 153L83.5635 210L251.022 293.25H171.022L54.0635 210L118.563 153Z" fill="url(#paint1_linear_16_3)"/>
<defs>
<linearGradient id="paint0_linear_16_3" x1="150" y1="0" x2="150" y2="300" gradientUnits="userSpaceOnUse">
<stop stop-color="#FFFA77"/>
<stop offset="0.515625" stop-color="#F05803"/>
<stop offset="1" stop-color="#FF1203"/>
</linearGradient>
<linearGradient id="paint1_linear_16_3" x1="69" y1="90" x2="259.01" y2="214.838" gradientUnits="userSpaceOnUse">
<stop stop-color="#404040"/>
<stop offset="1" stop-color="#C5C5C5"/>
</linearGradient>
</defs>
</svg>
