<svg width="1970" height="220" viewBox="0 0 1970 220" fill="none" xmlns="http://www.w3.org/2000/svg">
<g clip-path="url(#clip0_1_2)">
<path d="M481.32 67.5H441.445V183H419.445V67.5H379.57V48.25H481.32V67.5ZM578.913 125.25H559.663V103.25H521.163V183H501.913V86.75H521.163V100.5L534.913 86.75H559.663C564.979 86.75 569.471 88.675 573.138 92.525C576.988 96.1917 578.913 100.683 578.913 106V125.25ZM705.316 183H628.316C622.999 183 618.416 181.167 614.566 177.5C610.899 173.65 609.066 169.067 609.066 163.75V106C609.066 100.683 610.899 96.1917 614.566 92.525C618.416 88.675 622.999 86.75 628.316 86.75H686.066C691.383 86.75 695.874 88.675 699.541 92.525C703.391 96.1917 705.316 100.683 705.316 106V125.25L686.066 144.5H631.066L647.566 128H686.066V103.25H628.316V166.5H705.316V183ZM840.055 86.75L796.33 124.975V127.725H815.305C820.622 127.725 825.114 129.65 828.78 133.5C832.63 137.167 834.555 141.658 834.555 146.975V183H815.305V141.75H757.555V183H738.305V42.75L757.555 23.5V139.275L816.68 86.75H840.055ZM974.87 86.75L931.145 124.975V127.725H950.12C955.436 127.725 959.928 129.65 963.595 133.5C967.445 137.167 969.37 141.658 969.37 146.975V183H950.12V141.75H892.37V183H873.12V42.75L892.37 23.5V139.275L951.495 86.75H974.87ZM1101.43 183H1024.43C1019.12 183 1014.53 181.167 1010.68 177.5C1007.02 173.65 1005.18 169.067 1005.18 163.75V106C1005.18 100.683 1007.02 96.1917 1010.68 92.525C1014.53 88.675 1019.12 86.75 1024.43 86.75H1082.18C1087.5 86.75 1091.99 88.675 1095.66 92.525C1099.51 96.1917 1101.43 100.683 1101.43 106V125.25L1082.18 144.5H1027.18L1043.68 128H1082.18V103.25H1024.43V166.5H1101.43V183ZM1208.67 125.25H1189.42V103.25H1150.92V183H1131.67V86.75H1150.92V100.5L1164.67 86.75H1189.42C1194.74 86.75 1199.23 88.675 1202.9 92.525C1206.75 96.1917 1208.67 100.683 1208.67 106V125.25ZM1263.85 70.25L1247.35 89.5V48.25H1236.35V26.25H1244.6C1249.92 26.25 1254.41 28.175 1258.08 32.025C1261.93 35.6917 1263.85 40.1833 1263.85 45.5V70.25ZM1383.27 86.75L1366.49 103.25H1320.02V125.25H1358.52C1363.83 125.25 1368.32 127.175 1371.99 131.025C1375.84 134.692 1377.77 139.183 1377.77 144.5V163.75C1377.77 169.067 1375.84 173.65 1371.99 177.5C1368.32 181.167 1363.83 183 1358.52 183H1300.77V166.5H1358.52V141.75H1320.02C1314.7 141.75 1310.12 139.917 1306.27 136.25C1302.6 132.4 1300.77 127.817 1300.77 122.5V106C1300.77 100.683 1302.6 96.1917 1306.27 92.525C1310.12 88.675 1314.7 86.75 1320.02 86.75H1383.27ZM1593.6 48.25L1542.17 183H1506.42L1456.1 48.25H1480.85L1522.1 164.3H1527.6L1568.85 48.25H1593.6ZM1640.23 70.25H1620.98V48.25H1640.23V70.25ZM1640.23 183H1620.98V100.5L1640.23 81.25V183ZM1774.97 183H1697.97C1692.65 183 1688.07 181.167 1684.22 177.5C1680.55 173.65 1678.72 169.067 1678.72 163.75V106C1678.72 100.683 1680.55 96.1917 1684.22 92.525C1688.07 88.675 1692.65 86.75 1697.97 86.75H1755.72C1761.04 86.75 1765.53 88.675 1769.19 92.525C1773.04 96.1917 1774.97 100.683 1774.97 106V125.25L1755.72 144.5H1700.72L1717.22 128H1755.72V103.25H1697.97V166.5H1774.97V183ZM1942.71 86.75L1916.31 183H1886.06L1871.21 117.275H1868.46L1853.06 183H1822.81L1796.96 86.75H1817.58L1835.46 167.05H1840.96L1860.76 86.75H1880.01L1898.71 167.05H1904.21L1922.08 86.75H1942.71Z" fill="white"/>
<path d="M10 25C10 16.7157 16.7157 10 25 10H295C303.284 10 310 16.7157 310 25V195C310 203.284 303.284 210 295 210H25C16.7157 210 10 203.284 10 195V25Z" fill="url(#paint0_linear_1_2)"/>
<path d="M103.499 40L10 119.88V195C10 203.284 16.7157 210 25 210H295C303.284 210 310 203.284 310 195V158.283L237.725 80.9639L202.161 136.265L103.499 40Z" fill="black"/>
<path d="M128.563 112L73.5635 70L142.063 112L93.5635 150L261.022 205.5H181.022L64.0635 150L128.563 112Z" fill="url(#paint1_linear_1_2)"/>
</g>
<defs>
<linearGradient id="paint0_linear_1_2" x1="160" y1="10" x2="160" y2="210" gradientUnits="userSpaceOnUse">
<stop stop-color="#FFFA77"/>
<stop offset="0.515625" stop-color="#F05803"/>
<stop offset="1" stop-color="#FF1203"/>
</linearGradient>
<linearGradient id="paint1_linear_1_2" x1="79" y1="70" x2="217" y2="206" gradientUnits="userSpaceOnUse">
<stop stop-color="#404040"/>
<stop offset="1" stop-color="#C5C5C5"/>
</linearGradient>
<clipPath id="clip0_1_2">
<rect width="1970" height="220" fill="white"/>
</clipPath>
</defs>
</svg>
